<svg width="36" height="36" viewBox="0 0 36 36" fill="none" xmlns="http://www.w3.org/2000/svg">
<g clip-path="url(#clip0_1_646)">
<path d="M18 35.9998C27.9411 35.9998 36 27.9409 36 17.9998C36 8.05863 27.9411 -0.000244141 18 -0.000244141C8.05888 -0.000244141 0 8.05863 0 17.9998C0 27.9409 8.05888 35.9998 18 35.9998Z" fill="#007AB9"/>
<path d="M28.7549 19.4481V26.8691H24.4524V19.9455C24.4524 18.207 23.8312 17.0198 22.2734 17.0198C21.0846 17.0198 20.3783 17.8191 20.0665 18.593C19.9532 18.8696 19.924 19.2537 19.924 19.6416V26.8688H15.6212C15.6212 26.8688 15.6789 15.1424 15.6212 13.9286H19.9243V15.7623C19.9157 15.7768 19.9035 15.7909 19.8958 15.8047H19.9243V15.7623C20.4961 14.8825 21.5158 13.6247 23.802 13.6247C26.6327 13.6247 28.7549 15.4742 28.7549 19.4481ZM11.12 7.69092C9.64822 7.69092 8.6853 8.65705 8.6853 9.9264C8.6853 11.1688 9.62031 12.1628 11.0636 12.1628H11.0915C12.5922 12.1628 13.5253 11.1688 13.5253 9.9264C13.4967 8.65705 12.5922 7.69092 11.12 7.69092ZM8.94103 26.8691H13.2423V13.9286H8.94103V26.8691Z" fill="#F1F2F2"/>
</g>
<defs>
<clipPath id="clip0_1_646">
<rect width="36" height="36" fill="white"/>
</clipPath>
</defs>
</svg>
